<mxfile host="app.diagrams.net" agent="Mozilla/5.0 (Windows NT 10.0; Win64; x64) AppleWebKit/537.36 (KHTML, like Gecko) Chrome/132.0.0.0 Safari/537.36" version="26.0.4">
  <diagram name="페이지-1" id="jtsSnlM7iirWxvn57SnH">
    <mxGraphModel dx="989" dy="538" grid="1" gridSize="10" guides="1" tooltips="1" connect="1" arrows="1" fold="1" page="1" pageScale="1" pageWidth="1390" pageHeight="980" math="0" shadow="0">
      <root>
        <mxCell id="0" />
        <mxCell id="1" parent="0" />
        <mxCell id="0ALipL2Myr9kqnd2Wa-G-112" value="" style="rounded=0;whiteSpace=wrap;html=1;fillColor=none;movable=1;resizable=1;rotatable=1;deletable=1;editable=1;locked=0;connectable=1;" vertex="1" parent="1">
          <mxGeometry x="60" y="120" width="960" height="380" as="geometry" />
        </mxCell>
        <mxCell id="0ALipL2Myr9kqnd2Wa-G-7" value="" style="group;movable=0;resizable=0;rotatable=0;deletable=0;editable=0;locked=1;connectable=0;" vertex="1" connectable="0" parent="1">
          <mxGeometry x="350" y="130" width="170" height="360" as="geometry" />
        </mxCell>
        <mxCell id="0ALipL2Myr9kqnd2Wa-G-2" value="" style="rounded=0;whiteSpace=wrap;html=1;labelBackgroundColor=none;fillColor=none;dashed=1;" vertex="1" parent="0ALipL2Myr9kqnd2Wa-G-7">
          <mxGeometry y="20.76923076923077" width="170" height="339.2307692307692" as="geometry" />
        </mxCell>
        <mxCell id="0ALipL2Myr9kqnd2Wa-G-6" value="FilterChain" style="text;html=1;align=center;verticalAlign=middle;resizable=0;points=[];autosize=1;strokeColor=none;fillColor=none;" vertex="1" parent="0ALipL2Myr9kqnd2Wa-G-7">
          <mxGeometry width="80" height="30" as="geometry" />
        </mxCell>
        <mxCell id="0ALipL2Myr9kqnd2Wa-G-18" style="edgeStyle=orthogonalEdgeStyle;rounded=0;orthogonalLoop=1;jettySize=auto;html=1;startArrow=classic;startFill=1;" edge="1" parent="0ALipL2Myr9kqnd2Wa-G-7" source="0ALipL2Myr9kqnd2Wa-G-8" target="0ALipL2Myr9kqnd2Wa-G-9">
          <mxGeometry relative="1" as="geometry" />
        </mxCell>
        <mxCell id="0ALipL2Myr9kqnd2Wa-G-8" value="Filter 0" style="rounded=0;whiteSpace=wrap;html=1;fillStyle=auto;fillColor=#99FF99;" vertex="1" parent="0ALipL2Myr9kqnd2Wa-G-7">
          <mxGeometry x="25" y="40" width="125" height="40" as="geometry" />
        </mxCell>
        <mxCell id="0ALipL2Myr9kqnd2Wa-G-19" style="edgeStyle=orthogonalEdgeStyle;rounded=0;orthogonalLoop=1;jettySize=auto;html=1;startArrow=classic;startFill=1;" edge="1" parent="0ALipL2Myr9kqnd2Wa-G-7" source="0ALipL2Myr9kqnd2Wa-G-9" target="0ALipL2Myr9kqnd2Wa-G-10">
          <mxGeometry relative="1" as="geometry" />
        </mxCell>
        <mxCell id="0ALipL2Myr9kqnd2Wa-G-20" style="edgeStyle=orthogonalEdgeStyle;rounded=0;orthogonalLoop=1;jettySize=auto;html=1;startArrow=classic;startFill=1;" edge="1" parent="0ALipL2Myr9kqnd2Wa-G-7" source="0ALipL2Myr9kqnd2Wa-G-10" target="0ALipL2Myr9kqnd2Wa-G-11">
          <mxGeometry relative="1" as="geometry" />
        </mxCell>
        <mxCell id="0ALipL2Myr9kqnd2Wa-G-10" value="Filter 2" style="rounded=0;whiteSpace=wrap;html=1;fillColor=#99FF99;" vertex="1" parent="0ALipL2Myr9kqnd2Wa-G-7">
          <mxGeometry x="25" y="230" width="125" height="40" as="geometry" />
        </mxCell>
        <mxCell id="0ALipL2Myr9kqnd2Wa-G-11" value="Servlet" style="rounded=0;whiteSpace=wrap;html=1;fillColor=#99FF99;" vertex="1" parent="0ALipL2Myr9kqnd2Wa-G-7">
          <mxGeometry x="25" y="310" width="125" height="40" as="geometry" />
        </mxCell>
        <mxCell id="0ALipL2Myr9kqnd2Wa-G-24" value="" style="group" vertex="1" connectable="0" parent="0ALipL2Myr9kqnd2Wa-G-7">
          <mxGeometry x="17.5" y="110" width="140" height="80" as="geometry" />
        </mxCell>
        <mxCell id="0ALipL2Myr9kqnd2Wa-G-9" value="" style="rounded=0;whiteSpace=wrap;html=1;fillColor=#99FF99;" vertex="1" parent="0ALipL2Myr9kqnd2Wa-G-24">
          <mxGeometry x="7.5" width="125" height="70" as="geometry" />
        </mxCell>
        <mxCell id="0ALipL2Myr9kqnd2Wa-G-23" value="DelegatingFilterProxy" style="text;html=1;align=center;verticalAlign=middle;resizable=0;points=[];autosize=1;strokeColor=none;fillColor=none;" vertex="1" parent="0ALipL2Myr9kqnd2Wa-G-24">
          <mxGeometry width="140" height="30" as="geometry" />
        </mxCell>
        <mxCell id="0ALipL2Myr9kqnd2Wa-G-25" value="FilterChainProxy" style="rounded=0;whiteSpace=wrap;html=1;gradientColor=none;fillColor=#FFCCE6;" vertex="1" parent="0ALipL2Myr9kqnd2Wa-G-24">
          <mxGeometry x="22.5" y="30" width="97.5" height="30" as="geometry" />
        </mxCell>
        <mxCell id="0ALipL2Myr9kqnd2Wa-G-22" style="edgeStyle=orthogonalEdgeStyle;rounded=0;orthogonalLoop=1;jettySize=auto;html=1;startArrow=classic;startFill=1;endArrow=none;endFill=0;" edge="1" parent="1" source="0ALipL2Myr9kqnd2Wa-G-1" target="0ALipL2Myr9kqnd2Wa-G-8">
          <mxGeometry relative="1" as="geometry">
            <Array as="points">
              <mxPoint x="230" y="200" />
              <mxPoint x="230" y="200" />
            </Array>
          </mxGeometry>
        </mxCell>
        <mxCell id="0ALipL2Myr9kqnd2Wa-G-111" value="Response" style="edgeLabel;html=1;align=center;verticalAlign=middle;resizable=0;points=[];" vertex="1" connectable="0" parent="0ALipL2Myr9kqnd2Wa-G-22">
          <mxGeometry x="0.2812" y="1" relative="1" as="geometry">
            <mxPoint as="offset" />
          </mxGeometry>
        </mxCell>
        <mxCell id="0ALipL2Myr9kqnd2Wa-G-1" value="client" style="rounded=0;whiteSpace=wrap;html=1;" vertex="1" parent="1">
          <mxGeometry x="75" y="160" width="120" height="60" as="geometry" />
        </mxCell>
        <mxCell id="0ALipL2Myr9kqnd2Wa-G-3" value="&lt;font style=&quot;font-size: 23px;&quot;&gt;request process&lt;/font&gt;" style="text;html=1;align=center;verticalAlign=middle;resizable=0;points=[];autosize=1;strokeColor=none;fillColor=none;" vertex="1" parent="1">
          <mxGeometry x="60" y="80" width="190" height="40" as="geometry" />
        </mxCell>
        <mxCell id="0ALipL2Myr9kqnd2Wa-G-4" value="&lt;font style=&quot;color: rgb(108, 142, 191);&quot;&gt;JSON:&lt;br&gt;param1,&lt;br&gt;param2&lt;br&gt;Header:&lt;br&gt;AccessToken&lt;/font&gt;" style="edgeStyle=orthogonalEdgeStyle;rounded=0;orthogonalLoop=1;jettySize=auto;html=1;fillColor=#dae8fc;strokeColor=#6c8ebf;" edge="1" parent="1" source="0ALipL2Myr9kqnd2Wa-G-1" target="0ALipL2Myr9kqnd2Wa-G-8">
          <mxGeometry x="-0.5" relative="1" as="geometry">
            <Array as="points">
              <mxPoint x="220" y="180" />
              <mxPoint x="220" y="180" />
            </Array>
            <mxPoint as="offset" />
          </mxGeometry>
        </mxCell>
        <mxCell id="0ALipL2Myr9kqnd2Wa-G-28" value="" style="group" vertex="1" connectable="0" parent="1">
          <mxGeometry x="550" y="175" width="250" height="275" as="geometry" />
        </mxCell>
        <mxCell id="0ALipL2Myr9kqnd2Wa-G-26" value="" style="rounded=0;whiteSpace=wrap;html=1;dashed=1;fillColor=none;" vertex="1" parent="0ALipL2Myr9kqnd2Wa-G-28">
          <mxGeometry x="16.666666666666668" y="31.976744186046513" width="233.33333333333334" height="243.0232558139535" as="geometry" />
        </mxCell>
        <mxCell id="0ALipL2Myr9kqnd2Wa-G-27" value="SecurityFilterChain" style="text;html=1;align=center;verticalAlign=middle;resizable=0;points=[];autosize=1;strokeColor=none;fillColor=none;" vertex="1" parent="0ALipL2Myr9kqnd2Wa-G-28">
          <mxGeometry width="120" height="30" as="geometry" />
        </mxCell>
        <mxCell id="0ALipL2Myr9kqnd2Wa-G-32" value="" style="group" vertex="1" connectable="0" parent="0ALipL2Myr9kqnd2Wa-G-28">
          <mxGeometry x="91.66666666666667" y="38.37209302325582" width="83.33333333333334" height="29.418604651162795" as="geometry" />
        </mxCell>
        <mxCell id="0ALipL2Myr9kqnd2Wa-G-30" value="" style="rounded=0;whiteSpace=wrap;html=1;fillColor=#CCE5FF;" vertex="1" parent="0ALipL2Myr9kqnd2Wa-G-32">
          <mxGeometry width="83.33333333333334" height="12.790697674418608" as="geometry" />
        </mxCell>
        <mxCell id="0ALipL2Myr9kqnd2Wa-G-31" value="" style="rounded=0;whiteSpace=wrap;html=1;fillColor=#CCE5FF;" vertex="1" parent="0ALipL2Myr9kqnd2Wa-G-32">
          <mxGeometry y="16.62790697674419" width="83.33333333333334" height="12.790697674418608" as="geometry" />
        </mxCell>
        <mxCell id="0ALipL2Myr9kqnd2Wa-G-33" value="" style="group" vertex="1" connectable="0" parent="0ALipL2Myr9kqnd2Wa-G-28">
          <mxGeometry x="91.66666666666667" y="234.99866169372532" width="83.33333333333334" height="29.418604651162795" as="geometry" />
        </mxCell>
        <mxCell id="0ALipL2Myr9kqnd2Wa-G-34" value="" style="rounded=0;whiteSpace=wrap;html=1;fillColor=#CCE5FF;" vertex="1" parent="0ALipL2Myr9kqnd2Wa-G-33">
          <mxGeometry width="83.33333333333334" height="12.790697674418608" as="geometry" />
        </mxCell>
        <mxCell id="0ALipL2Myr9kqnd2Wa-G-35" value="" style="rounded=0;whiteSpace=wrap;html=1;fillColor=#CCE5FF;" vertex="1" parent="0ALipL2Myr9kqnd2Wa-G-33">
          <mxGeometry y="16.62790697674419" width="83.33333333333334" height="12.790697674418608" as="geometry" />
        </mxCell>
        <mxCell id="0ALipL2Myr9kqnd2Wa-G-45" style="edgeStyle=orthogonalEdgeStyle;rounded=0;orthogonalLoop=1;jettySize=auto;html=1;startArrow=classic;startFill=1;" edge="1" parent="0ALipL2Myr9kqnd2Wa-G-28" source="0ALipL2Myr9kqnd2Wa-G-37" target="0ALipL2Myr9kqnd2Wa-G-36">
          <mxGeometry relative="1" as="geometry" />
        </mxCell>
        <mxCell id="0ALipL2Myr9kqnd2Wa-G-37" value="JwtAuthenticationProcessingFilter" style="rounded=0;whiteSpace=wrap;html=1;fillColor=#CCE5FF;" vertex="1" parent="0ALipL2Myr9kqnd2Wa-G-28">
          <mxGeometry x="33.33" y="136" width="200" height="19" as="geometry" />
        </mxCell>
        <mxCell id="0ALipL2Myr9kqnd2Wa-G-47" style="edgeStyle=orthogonalEdgeStyle;rounded=0;orthogonalLoop=1;jettySize=auto;html=1;entryX=0.5;entryY=0;entryDx=0;entryDy=0;startArrow=classic;startFill=1;" edge="1" parent="0ALipL2Myr9kqnd2Wa-G-28" source="0ALipL2Myr9kqnd2Wa-G-38" target="0ALipL2Myr9kqnd2Wa-G-34">
          <mxGeometry relative="1" as="geometry" />
        </mxCell>
        <mxCell id="0ALipL2Myr9kqnd2Wa-G-51" style="edgeStyle=orthogonalEdgeStyle;rounded=0;orthogonalLoop=1;jettySize=auto;html=1;startArrow=classic;startFill=1;" edge="1" parent="0ALipL2Myr9kqnd2Wa-G-28" source="0ALipL2Myr9kqnd2Wa-G-38" target="0ALipL2Myr9kqnd2Wa-G-37">
          <mxGeometry relative="1" as="geometry" />
        </mxCell>
        <mxCell id="0ALipL2Myr9kqnd2Wa-G-38" value="&lt;span style=&quot;font-size: 9px;&quot;&gt;CustomJson&lt;/span&gt;&lt;br style=&quot;font-size: 9px;&quot;&gt;&lt;span style=&quot;font-size: 9px;&quot;&gt;UsernamePasswordAuthenticationFilter&lt;/span&gt;" style="rounded=0;whiteSpace=wrap;html=1;fillColor=#CCE5FF;" vertex="1" parent="0ALipL2Myr9kqnd2Wa-G-28">
          <mxGeometry x="33.33" y="180" width="200" height="34.18" as="geometry" />
        </mxCell>
        <mxCell id="0ALipL2Myr9kqnd2Wa-G-40" value="" style="group" vertex="1" connectable="0" parent="0ALipL2Myr9kqnd2Wa-G-28">
          <mxGeometry x="33.333333333333336" y="83.13953488372093" width="200" height="38.37209302325582" as="geometry" />
        </mxCell>
        <mxCell id="0ALipL2Myr9kqnd2Wa-G-36" value="LogoutFilter" style="rounded=0;whiteSpace=wrap;html=1;fillColor=#CCE5FF;" vertex="1" parent="0ALipL2Myr9kqnd2Wa-G-40">
          <mxGeometry y="9.593023255813955" width="200" height="19.18604651162791" as="geometry" />
        </mxCell>
        <mxCell id="0ALipL2Myr9kqnd2Wa-G-39" value="&lt;font style=&quot;font-size: 9px;&quot;&gt;&lt;br&gt;&lt;/font&gt;" style="text;html=1;align=center;verticalAlign=middle;resizable=0;points=[];autosize=1;strokeColor=none;fillColor=none;" vertex="1" parent="0ALipL2Myr9kqnd2Wa-G-40">
          <mxGeometry x="83.33333333333334" width="20" height="30" as="geometry" />
        </mxCell>
        <mxCell id="0ALipL2Myr9kqnd2Wa-G-44" style="edgeStyle=orthogonalEdgeStyle;rounded=0;orthogonalLoop=1;jettySize=auto;html=1;entryX=0.5;entryY=0;entryDx=0;entryDy=0;startArrow=classic;startFill=1;" edge="1" parent="0ALipL2Myr9kqnd2Wa-G-28" source="0ALipL2Myr9kqnd2Wa-G-31" target="0ALipL2Myr9kqnd2Wa-G-36">
          <mxGeometry relative="1" as="geometry" />
        </mxCell>
        <mxCell id="0ALipL2Myr9kqnd2Wa-G-29" style="edgeStyle=orthogonalEdgeStyle;rounded=0;orthogonalLoop=1;jettySize=auto;html=1;exitX=1;exitY=0.5;exitDx=0;exitDy=0;entryX=0;entryY=0.449;entryDx=0;entryDy=0;entryPerimeter=0;" edge="1" parent="1" source="0ALipL2Myr9kqnd2Wa-G-25" target="0ALipL2Myr9kqnd2Wa-G-26">
          <mxGeometry relative="1" as="geometry" />
        </mxCell>
        <mxCell id="0ALipL2Myr9kqnd2Wa-G-113" value="JwtService" style="rounded=0;whiteSpace=wrap;html=1;fillColor=#CCFFE6;" vertex="1" parent="1">
          <mxGeometry x="860" y="310" width="150" height="20" as="geometry" />
        </mxCell>
        <mxCell id="0ALipL2Myr9kqnd2Wa-G-114" style="edgeStyle=orthogonalEdgeStyle;rounded=0;orthogonalLoop=1;jettySize=auto;html=1;entryX=0;entryY=0.5;entryDx=0;entryDy=0;" edge="1" parent="1" source="0ALipL2Myr9kqnd2Wa-G-37" target="0ALipL2Myr9kqnd2Wa-G-113">
          <mxGeometry relative="1" as="geometry" />
        </mxCell>
      </root>
    </mxGraphModel>
  </diagram>
</mxfile>
